#!OML:ASF H:\ColoradoDance\Project 1\Capture day 1\Session 8\male.ASF
:FULLY-SPECIFIED
:DEGREES
1
upperback -2.724670 -2.950090 -0.010909
rfoot -23.716101 -34.396900
lradius 27.800400
lthumb -11.314800 22.672701
rradius 34.367599
lwrist -13.464600
rhand -33.166599 -5.704780
rhumerus -35.458500 5.193750 -40.799301
lowerneck -0.178260 -12.146700 -7.437410
lhand -38.285702 -7.002130
ltibia 36.317001
head 4.862520 -8.297690 3.233900
rwrist 1.192670
lfingers 7.125020
rtoes 13.487700
lowerback 1.700760 -2.069030 -5.677740
rfingers 7.125020
lclavicle 0.000000 0.000000
upperneck 11.158400 -17.114500 9.707730
rfemur -33.363201 -26.457001 27.356701
thorax -3.487630 -1.309380 3.298160
rclavicle 0.000000 0.000000
rtibia 41.759899
lfoot -6.913270 35.518200
lhumerus -50.408600 0.378515 49.671700
rthumb -6.375090 -35.588799
root 31.930401 18.971701 -36.270500 6.477020 54.057999 1.036770
ltoes -4.080260
lfemur 0.983464 9.576060 -8.212520
2
upperback -2.840420 -4.493390 2.705330
rfoot -23.883600 -16.663401
lradius 25.600599
lthumb -1.218830 50.148899
rradius 28.383101
lwrist -16.089899
rhand -40.945599 -9.061560
rhumerus -35.150501 -4.421290 -26.874599
lowerneck -1.645410 -11.280700 -5.340470
lhand -27.827000 20.172701
ltibia 61.101799
head 3.999030 -7.622360 1.961980
rwrist 3.359920
lfingers 7.125020
rtoes 1.748130
lowerback 1.493260 -3.408850 -0.644543
rfingers 7.125020
lclavicle 0.000000 -0.000000
upperneck 9.477980 -15.512700 6.081710
rfemur -24.650801 -1.838910 32.030399
thorax -3.493640 -2.186120 3.343310
rclavicle 0.000000 -0.000000
rtibia 43.312199
lfoot -9.639500 16.537701
lhumerus -45.091202 7.239980 45.981899
rthumb -13.879200 -38.578400
root 32.519699 18.673700 -33.368401 7.602450 5.195740 -3.454350
ltoes 1.814400
lfemur -19.191999 11.895900 -9.196170
3
upperback -2.307230 -5.724030 3.891120
rfoot -27.566601 -3.693880
lradius 19.960400
lthumb -6.356690 11.760300
rradius 23.643299
lwrist -16.556200
rhand -11.507600 -53.965302
rhumerus -44.796700 -9.688960 -28.565500
lowerneck -6.303310 -5.182500 -0.455930
lhand -33.147598 -18.124300
ltibia 39.045700
head 4.496110 -3.463480 -0.091340
rwrist 5.876990
lfingers 7.125020
rtoes -8.752130
lowerback 0.110937 -4.343650 2.511000
rfingers 7.125020
lclavicle -0.000000 0.000000
upperneck 10.042500 -7.042590 0.724513
rfemur -19.707001 25.227900 18.627600
thorax -2.281690 -2.886650 2.717000
rclavicle -0.000000 0.000000
rtibia 38.643299
lfoot -4.965150 12.537900
lhumerus -31.147400 8.077060 50.194000
rthumb 14.531400 -83.436401
root 33.517200 18.690001 -30.003099 15.333400 -40.808701 -4.354330
ltoes 11.877800
lfemur -37.226299 -5.239550 2.503490
4
upperback -2.647720 -4.970190 2.474180
rfoot -16.358200 -7.901680
lradius 26.671301
lthumb -4.252680 37.830299
rradius 21.715099
lwrist -14.532100
rhand -11.891500 -49.123001
rhumerus -51.954300 -11.166700 -27.573900
lowerneck -6.045710 2.479920 6.106540
lhand -30.968500 7.892960
ltibia 31.471100
head 4.130580 1.504900 -3.029090
rwrist 4.868830
lfingers 7.125020
rtoes -23.051201
lowerback 0.498143 -3.767360 1.894960
rfingers 7.125020
lclavicle -0.000000 0.000000
upperneck 9.767330 3.407720 -7.212940
rfemur -23.991301 23.643000 -12.668900
thorax -2.941130 -2.512790 1.636650
rclavicle -0.000000 0.000000
rtibia 24.215500
lfoot -15.373100 2.131720
lhumerus -30.055599 3.565520 59.400700
rthumb 14.161600 -78.620300
root 34.363499 18.757700 -24.835899 -56.189301 -85.952400 72.864601
ltoes -11.908700
lfemur -28.633499 -2.128470 -10.590300
5
upperback -1.766740 -1.855650 1.900290
rfoot -19.773001 -23.806700
lradius 23.960899
lthumb 7.169220 52.019001
rradius 22.726000
lwrist -18.459101
rhand -29.924200 -6.905130
rhumerus -53.752800 -11.387500 -42.801498
lowerneck -2.741160 6.937260 10.696400
lhand -19.140800 22.160400
ltibia 46.144600
head 4.157070 4.571960 -5.462150
rwrist 12.125700
lfingers 7.125020
rtoes -6.328510
lowerback 2.211470 -1.504880 4.028620
rfingers 7.125020
lclavicle 0.000000 -0.000000
upperneck 8.424690 9.770270 -13.668000
rfemur -25.628300 -2.023070 9.127780
thorax -3.124560 -1.009610 -0.206834
rclavicle 0.000000 -0.000000
rtibia 52.957100
lfoot -25.088900 18.687901
lhumerus -31.177500 3.849830 62.903599
rthumb -3.244230 -36.860199
root 34.837898 18.514601 -20.510900 -160.703995 -51.183601 178.436005
ltoes 3.271610
lfemur -37.757900 16.064199 -29.507099
6
upperback -3.181060 -0.285006 0.792241
rfoot 2.612620 4.893640
lradius 23.973900
lthumb 5.571460 55.256500
rradius 28.454000
lwrist -18.259399
rhand -34.881001 -5.195690
rhumerus -54.364799 -12.262500 -58.195599
lowerneck -2.409300 7.698590 10.685400
lhand -20.795799 25.349701
ltibia 49.247200
head 4.064800 5.051350 -5.375870
rwrist 12.841600
lfingers 7.125020
rtoes -41.362999
lowerback 0.729352 -0.234229 3.284690
rfingers 7.125020
lclavicle -0.000000 -0.000000
upperneck 7.903780 10.736000 -13.592600
rfemur 8.032820 -0.342414 23.999100
thorax -3.695240 -0.263929 -1.010180
rclavicle -0.000000 -0.000000
rtibia 24.309700
lfoot -26.674700 26.718500
lhumerus -36.193901 5.361400 67.943497
rthumb -8.029960 -35.023102
root 34.840000 18.170601 -17.452000 -161.169998 -22.725500 180.453003
ltoes 8.083180
lfemur -52.442600 27.312099 -44.105099
7
upperback -2.813920 -0.254219 0.184201
rfoot -21.769501 -15.343900
lradius 42.533100
lthumb 5.198340 55.817101
rradius 34.182301
lwrist -9.481870
rhand -42.640701 -3.633190
rhumerus -47.868198 -7.809580 -74.541496
lowerneck -1.455740 9.495200 9.937390
lhand -21.182301 25.900900
ltibia 56.218601
head 3.456550 6.235590 -5.775840
rwrist 10.061800
lfingers 7.125020
rtoes -29.941700
lowerback 1.480810 -0.247885 4.082360
rfingers 7.125020
lclavicle 0.000000 -0.000000
upperneck 5.054350 13.142400 -15.658500
rfemur 7.154930 6.348960 24.828400
thorax -3.749150 -0.269669 -2.083970
rclavicle 0.000000 -0.000000
rtibia 12.062600
lfoot -12.224700 3.912760
lhumerus -34.840401 -8.192450 74.385002
rthumb -15.512400 -33.030899
root 35.146301 17.841299 -13.826200 -158.352997 -5.172270 179.445999
ltoes -11.121200
lfemur -66.697403 22.264601 -43.026901
